<?xml version="1.0" encoding="UTF-8"?><svg id="b" xmlns="http://www.w3.org/2000/svg" width="180" height="49.34" viewBox="0 0 180 49.34"><defs><style>.r{fill:#009c9d;}.s{fill:#e50019;}</style></defs><g id="c"><g id="d"><path id="e" class="r" d="m150.77,21.64c-2.95-2.42-3.38-6.76-.97-9.71.05-.06.1-.12.16-.19,4.02-4.79,9.59-1.85,16.99-11.74-7.39,9.89-2.83,14.23-6.46,19.61-2.05,3.23-6.33,4.18-9.56,2.13-.06-.04-.11-.07-.17-.11h0Z"/><path id="f" class="s" d="m35.79,28c-1.62-.71-3.37-1.06-5.14-1.03-1.93.04-3.84.35-5.69.93-.5.15-1.13.36-1.86.64v-1.38h-2.37v21.61h2.37v-17.04c.47-.41.98-.75,1.54-1.03,1.89-.85,3.94-1.25,6-1.19,1.43-.09,2.87.16,4.19.72,1.09.39,1.86,1.39,1.96,2.55v16h2.43v-16.15c0-1.92-1.09-3.54-3.42-4.61"/><path id="g" class="s" d="m59.41,27.14v18.32c-.86.27-1.58.49-2.13.64-1.45.44-2.95.69-4.47.75-1.99.11-3.95-.56-5.45-1.87-1.57-1.65-2.38-3.87-2.25-6.14h9.21v-2.45h-8.98c.29-1.55.92-3.01,1.83-4.3,1.14-1.59,2.95-2.55,4.9-2.59h.37v-2.5h-.38c-2.67.03-5.18,1.26-6.84,3.35-1.38,1.75-2.28,3.83-2.61,6.04h-1.82v2.45h1.64c-.13,2.61.62,5.18,2.13,7.31,1.71,2.12,4.48,3.19,8.22,3.19,1.55-.02,3.1-.21,4.61-.58,1.49-.4,3-.73,4.52-.98v-20.64h-2.5Z"/><path id="h" class="s" d="m83.39,16.12c-2.48,0-4.48,2.01-4.48,4.48s2.01,4.48,4.48,4.48c2.48,0,4.48-2.01,4.48-4.48,0-2.47-2.01-4.48-4.48-4.48m0,5.77c-.71,0-1.29-.58-1.29-1.29,0-.71.58-1.29,1.29-1.29.71,0,1.29.58,1.29,1.29,0,.71-.58,1.29-1.29,1.29"/><rect id="i" class="s" x="103.26" y="19.21" width="19.02" height="3.68"/><path id="j" class="s" d="m99.12,13.38h-6.41v-2.77h-3.91s0,6.65,0,6.65h10.31v-3.88Z"/><path id="k" class="s" d="m97.97,27.87c-1.15-.63-2.46-.94-3.77-.89-1.29.04-2.58.23-3.83.56-.5.13-2.91.86-2.91.86v4.29s.35-.25.87-.56c.39-.21.97-.5.97-.5.57-.26,1.15-.49,1.74-.68,1.01-.4,2.09-.58,3.17-.54.51.02,1,.2,1.4.52.37.44.55,1.01.49,1.58v16.24h4.03v-17.2c.03-1.54-.8-2.96-2.16-3.68"/><path id="l" class="s" d="m174.83,21.11h5.17v-3.87h-9.04v4.03h0v2.03h3.88v-2.19Z"/><path id="m" class="s" d="m152.67,44.73c-.46.16-.85.28-1.15.35-1.15.35-2.35.55-3.55.6-1.07-.02-2.11-.27-3.07-.73-1.73-.78-1.73-1.61-1.73-1.89v-15.94h-3.93v15.99c0,.64-.17,1.36-1.44,1.93-1.22.47-2.52.69-3.82.64-1.16.03-2.3-.31-3.26-.96-.85-.51-1.37-1.43-1.36-2.42v-15.18h-3.84v15.23c-.02,2.13,1.07,4.13,2.87,5.27,1.67,1.12,3.64,1.7,5.65,1.65,1.65.03,3.28-.25,4.82-.84.83-.33,1.62-.77,2.34-1.29.39.28.79.53,1.22.75,1.69.89,3.56,1.36,5.47,1.37,1.35-.03,2.7-.2,4.02-.52,1.91-.41,3.14-.67,3.65-.76l.13-.02.93-.14v-20.7h-3.94v17.6Z"/><path id="n" class="s" d="m0,21.76h14.43v27h2.57v-29.56H0v2.56Z"/><path id="o" class="s" d="m170.97,30.79c-3.14-.26-5.97,1.91-6.53,5.02h8.32v3.77h-8.73s-.45,6.13,6.59,6.13c1.32-.05,2.63-.25,3.9-.61.33-.08,1.1-.33,1.61-.48v-17.47h3.87v20.73l-1.02.15-.15.03c-.56.09-1.91.35-4,.77-1.45.3-2.92.46-4.4.46-10.61,0-10.44-9.71-10.44-9.71h-1.59v-3.77h1.87c.4-1.99,1.26-3.85,2.53-5.43,1.74-2.11,4.32-3.35,7.06-3.37l1.12-.02v3.81Z"/><path id="p" class="s" d="m80.93,27.14v16.59c-.41.26-.85.48-1.31.65l-.71.29c-.46.16-.93.35-1.23.42-1.13.33-2.29.51-3.47.53-1.06-.02-2.11-.27-3.07-.73-1.17-.54-1.87-1.76-1.73-3.04v-14.71h-3.93v15.72c0,.05,0,.11,0,.16,0,.03,0,.06,0,.09,0,.93.22,3.19,3.26,4.81,1.68.92,3.57,1.38,5.49,1.35,2.22-.09,4.42-.54,6.5-1.32l.2-.04v.85h3.74v-21.62h-3.74Z"/><path id="q" class="s" d="m120.2,28.99c-.1-.06-.19-.13-.27-.21-.25-.16-.49-.3-.7-.41-1.69-.89-3.56-1.36-5.47-1.37-1.35.03-2.7.2-4.02.52-1.21.26-2.14.56-2.79.69v-1.09h-3.74v21.63h3.74v-16.09s1.24-1.41,4.78-1.96c.64-.09,1.29-.13,1.94-.11,1.06.03,2.11.28,3.07.73,1.73.78,1.72,1.47,1.73,1.89v15.54h3.93v-15.74c-.01-1.63-.85-3.14-2.21-4.02"/></g></g></svg>